<?xml version="1.0" encoding="UTF-8" standalone="no"?>
<!-- Created with Inkscape (http://www.inkscape.org/) -->

<svg
   xmlns:dc="http://purl.org/dc/elements/1.1/"
   xmlns:cc="http://creativecommons.org/ns#"
   xmlns:rdf="http://www.w3.org/1999/02/22-rdf-syntax-ns#"
   xmlns:svg="http://www.w3.org/2000/svg"
   xmlns="http://www.w3.org/2000/svg"
   xmlns:xlink="http://www.w3.org/1999/xlink"
   xmlns:sodipodi="http://sodipodi.sourceforge.net/DTD/sodipodi-0.dtd"
   xmlns:inkscape="http://www.inkscape.org/namespaces/inkscape"
   width="256"
   height="256"
   viewBox="0 0 67.733331 67.733331"
   version="1.1"
   id="svg8"
   inkscape:version="0.92.4 (unknown)"
   sodipodi:docname="TilingBG.svg"
   inkscape:export-filename="/home/jesper/www/html/yoshimi/img/bg.png"
   inkscape:export-xdpi="96"
   inkscape:export-ydpi="96">
  <defs
     id="defs2">
    <filter
       height="1.0902328"
       y="-0.045116402"
       width="1.1025547"
       x="-0.051277373"
       id="filter12928-6-4"
       style="color-interpolation-filters:sRGB"
       inkscape:collect="always">
      <feGaussianBlur
         id="feGaussianBlur12930-7-3"
         stdDeviation="0.87397138"
         inkscape:collect="always" />
    </filter>
    <mask
       id="mask5419-9-5-1-7"
       maskUnits="userSpaceOnUse">
      <g
         id="use5421-7-3-4-3"
         transform="translate(1842.0573,-2655.4198)">
        <rect
           style="color:#000000;clip-rule:nonzero;display:inline;overflow:visible;visibility:visible;opacity:1;isolation:auto;mix-blend-mode:normal;color-interpolation:sRGB;color-interpolation-filters:linearRGB;solid-color:#000000;solid-opacity:1;fill:#ffffff;fill-opacity:1;fill-rule:nonzero;stroke:none;stroke-width:5.00393009;stroke-linecap:round;stroke-linejoin:round;stroke-miterlimit:4;stroke-dasharray:none;stroke-dashoffset:0;stroke-opacity:1;marker:none;marker-start:none;marker-mid:none;marker-end:none;color-rendering:auto;image-rendering:auto;shape-rendering:auto;text-rendering:auto;enable-background:accumulate"
           id="rect5461-1-9-2"
           width="61.125"
           height="23.75"
           x="30.875"
           y="920.125"
           transform="translate(0,732.36223)" />
        <path
           sodipodi:nodetypes="ccccc"
           inkscape:connector-curvature="0"
           transform="matrix(0.25836428,0,0,0.078125,-448.51152,1742.0117)"
           style="color:#000000;clip-rule:nonzero;display:inline;overflow:visible;visibility:visible;opacity:1;isolation:auto;mix-blend-mode:normal;color-interpolation:sRGB;color-interpolation-filters:linearRGB;solid-color:#000000;solid-opacity:1;fill:#000000;fill-opacity:1;fill-rule:evenodd;stroke:none;stroke-width:1;stroke-linecap:butt;stroke-linejoin:miter;stroke-miterlimit:4;stroke-dasharray:none;stroke-dashoffset:0;stroke-opacity:1;marker:none;marker-start:none;marker-mid:none;marker-end:none;color-rendering:auto;image-rendering:auto;shape-rendering:auto;text-rendering:auto;enable-background:accumulate"
           d="m 1879.0167,-998.06976 h 193.6372 v 14.11071 h -193.6372 z"
           id="path5463-3-5-2-3" />
        <path
           sodipodi:nodetypes="ccccc"
           inkscape:connector-curvature="0"
           transform="matrix(0,0.32899626,-0.078125,0,-30.935257,1038.2901)"
           style="color:#000000;clip-rule:nonzero;display:inline;overflow:visible;visibility:visible;opacity:1;isolation:auto;mix-blend-mode:normal;color-interpolation:sRGB;color-interpolation-filters:linearRGB;solid-color:#000000;solid-opacity:1;fill:#000000;fill-opacity:1;fill-rule:evenodd;stroke:none;stroke-width:1;stroke-linecap:butt;stroke-linejoin:miter;stroke-miterlimit:4;stroke-dasharray:none;stroke-dashoffset:0;stroke-opacity:1;marker:none;marker-start:none;marker-mid:none;marker-end:none;color-rendering:auto;image-rendering:auto;shape-rendering:auto;text-rendering:auto;enable-background:accumulate"
           d="m 1879.0167,-998.06976 h 49.2959 v 14.11072 h -49.2959 z"
           id="path5465-1-0-8" />
        <path
           sodipodi:nodetypes="ccccc"
           inkscape:connector-curvature="0"
           transform="matrix(0,0.32899626,-0.078125,0,-20.855606,1038.2901)"
           style="color:#000000;clip-rule:nonzero;display:inline;overflow:visible;visibility:visible;opacity:1;isolation:auto;mix-blend-mode:normal;color-interpolation:sRGB;color-interpolation-filters:linearRGB;solid-color:#000000;solid-opacity:1;fill:#000000;fill-opacity:1;fill-rule:evenodd;stroke:none;stroke-width:1;stroke-linecap:butt;stroke-linejoin:miter;stroke-miterlimit:4;stroke-dasharray:none;stroke-dashoffset:0;stroke-opacity:1;marker:none;marker-start:none;marker-mid:none;marker-end:none;color-rendering:auto;image-rendering:auto;shape-rendering:auto;text-rendering:auto;enable-background:accumulate"
           d="m 1879.0167,-998.06976 h 49.2959 v 14.11072 h -49.2959 z"
           id="path5467-2-6-0" />
        <path
           sodipodi:nodetypes="ccccc"
           inkscape:connector-curvature="0"
           transform="matrix(0,0.32899626,-0.078125,0,-10.775955,1038.2901)"
           style="color:#000000;clip-rule:nonzero;display:inline;overflow:visible;visibility:visible;opacity:1;isolation:auto;mix-blend-mode:normal;color-interpolation:sRGB;color-interpolation-filters:linearRGB;solid-color:#000000;solid-opacity:1;fill:#000000;fill-opacity:1;fill-rule:evenodd;stroke:none;stroke-width:1;stroke-linecap:butt;stroke-linejoin:miter;stroke-miterlimit:4;stroke-dasharray:none;stroke-dashoffset:0;stroke-opacity:1;marker:none;marker-start:none;marker-mid:none;marker-end:none;color-rendering:auto;image-rendering:auto;shape-rendering:auto;text-rendering:auto;enable-background:accumulate"
           d="m 1879.0167,-998.06976 h 49.2959 v 14.11072 h -49.2959 z"
           id="path5469-0-8-0" />
        <path
           sodipodi:nodetypes="ccccc"
           inkscape:connector-curvature="0"
           transform="matrix(0,0.32899626,-0.078125,0,-0.696304,1038.2901)"
           style="color:#000000;clip-rule:nonzero;display:inline;overflow:visible;visibility:visible;opacity:1;isolation:auto;mix-blend-mode:normal;color-interpolation:sRGB;color-interpolation-filters:linearRGB;solid-color:#000000;solid-opacity:1;fill:#000000;fill-opacity:1;fill-rule:evenodd;stroke:none;stroke-width:1;stroke-linecap:butt;stroke-linejoin:miter;stroke-miterlimit:4;stroke-dasharray:none;stroke-dashoffset:0;stroke-opacity:1;marker:none;marker-start:none;marker-mid:none;marker-end:none;color-rendering:auto;image-rendering:auto;shape-rendering:auto;text-rendering:auto;enable-background:accumulate"
           d="m 1879.0167,-998.06976 h 49.2959 v 14.11072 h -49.2959 z"
           id="path5471-6-9-9" />
      </g>
    </mask>
  </defs>
  <sodipodi:namedview
     id="base"
     pagecolor="#ffffff"
     bordercolor="#666666"
     borderopacity="1.0"
     inkscape:pageopacity="0.0"
     inkscape:pageshadow="2"
     inkscape:zoom="1.4"
     inkscape:cx="141.90313"
     inkscape:cy="106.60125"
     inkscape:document-units="mm"
     inkscape:current-layer="layer1"
     showgrid="false"
     units="px"
     inkscape:window-width="1918"
     inkscape:window-height="1058"
     inkscape:window-x="0"
     inkscape:window-y="20"
     inkscape:window-maximized="1" />
  <metadata
     id="metadata5">
    <rdf:RDF>
      <cc:Work
         rdf:about="">
        <dc:format>image/svg+xml</dc:format>
        <dc:type
           rdf:resource="http://purl.org/dc/dcmitype/StillImage" />
        <dc:title></dc:title>
      </cc:Work>
    </rdf:RDF>
  </metadata>
  <g
     inkscape:label="Layer 1"
     inkscape:groupmode="layer"
     id="layer1"
     transform="translate(0,-229.26668)"
     style="opacity:0.301">
    <g
       id="g13300"
       transform="translate(10.787758,-1.815905)"
       style="">
      <g
         id="g13183"
         transform="matrix(0.23572524,-0.16952913,0.16952913,0.23572524,-485.90096,159.195)"
         style="display:inline">
        <g
           id="g13159"
           transform="matrix(1.4975353,0,0,1.4975353,1184.8688,-281.12639)"
           style="display:inline;opacity:0.6;fill:#0a314c;fill-opacity:1;stroke:none;filter:url(#filter12928-6-4)">
          <g
             style="fill:#0a314c;fill-opacity:1;stroke:none"
             id="g13151"
             transform="translate(-480.88685,480.15674)" />
          <g
             style="fill:#0a314c;fill-opacity:1;stroke:none"
             transform="matrix(0.99285047,0,0,1,0.02228826,-0.53879683)"
             id="g13153" />
          <g
             style="fill:#0a314c;fill-opacity:1;stroke:none"
             id="g13155" />
          <path
             mask="url(#mask5419-9-5-1-7)"
             inkscape:connector-curvature="0"
             transform="matrix(0.61823271,0,0,0.61823271,-1152.8235,1654.3561)"
             style="color:#000000;clip-rule:nonzero;display:inline;overflow:visible;visibility:visible;opacity:1;isolation:auto;mix-blend-mode:normal;color-interpolation:sRGB;color-interpolation-filters:linearRGB;solid-color:#000000;solid-opacity:1;fill:#0a314c;fill-opacity:1;fill-rule:evenodd;stroke:none;stroke-width:1;stroke-linecap:butt;stroke-linejoin:miter;stroke-miterlimit:4;stroke-dasharray:none;stroke-dashoffset:0;stroke-opacity:1;marker:none;marker-start:none;marker-mid:none;marker-end:none;color-rendering:auto;image-rendering:auto;shape-rendering:auto;text-rendering:auto;enable-background:accumulate"
             d="m 1879.0167,-998.06976 h 49.2959 v 14.11072 h -49.2959 z"
             id="path13157" />
        </g>
        <g
           id="g13181"
           transform="matrix(1.4950128,0,0,1.4950128,1185.0465,-281.17675)"
           style="display:inline;opacity:1">
          <g
             id="g13167"
             transform="translate(-480.88685,480.15674)"
             style="">
            <path
               inkscape:connector-curvature="0"
               id="path13163"
               d="m 498.35922,541.09619 c 0,0.94451 -0.7657,1.71021 -1.71022,1.71021 -0.94452,0 -1.71022,-0.7657 -1.71022,-1.71021 0,-0.94453 0.7657,-1.71022 1.71022,-1.71022 0.94452,0 1.71022,0.76569 1.71022,1.71022 z"
               style="fill:#000000;fill-opacity:1;fill-rule:evenodd;stroke:#2d1203;stroke-width:0.95776898;stroke-linecap:butt;stroke-linejoin:miter;stroke-miterlimit:4;stroke-dasharray:none;stroke-opacity:1"
               transform="matrix(1.1893556,0,0,1.1893556,-93.909189,-100.25032)" />
            <path
               inkscape:connector-curvature="0"
               id="path13165"
               d="m 515.26222,541.03419 c 0,0.94451 -0.7657,1.71021 -1.71022,1.71021 -0.94452,0 -1.71022,-0.7657 -1.71022,-1.71021 0,-0.94453 0.7657,-1.71022 1.71022,-1.71022 0.94452,0 1.71022,0.76569 1.71022,1.71022 z"
               style="fill:#000000;fill-opacity:1;fill-rule:evenodd;stroke:#160901;stroke-width:0.96682298;stroke-linecap:butt;stroke-linejoin:miter;stroke-miterlimit:4;stroke-dasharray:none;stroke-opacity:1"
               transform="matrix(1.1782171,0,0,1.1782171,-91.389634,-94.193194)" />
          </g>
          <g
             transform="matrix(0.99285047,0,0,1,0.02228838,-0.53879683)"
             id="g13173"
             style="">
            <path
               sodipodi:nodetypes="ccccc"
               inkscape:connector-curvature="0"
               id="path13169"
               d="m 10.893574,1015.5612 -5.387714,-8.2611 3.24803,-1.9488 2.696647,4.2376 2.805313,4.4083"
               style="fill:#000000;fill-opacity:1;stroke:#000000;stroke-width:1.61320996;stroke-linecap:butt;stroke-linejoin:miter;stroke-miterlimit:4;stroke-dasharray:none;stroke-opacity:1"
               transform="translate(1.9928413,1.2282499)" />
            <path
               sodipodi:nodetypes="ccccc"
               inkscape:connector-curvature="0"
               id="path13171"
               d="m 36.979625,1016.5092 5.984985,-9.1771 -3.24803,-1.9488 -2.71958,4.2737 -3.708082,5.827"
               style="fill:#000000;fill-opacity:1;stroke:#000000;stroke-width:1.61320996;stroke-linecap:butt;stroke-linejoin:miter;stroke-miterlimit:4;stroke-dasharray:none;stroke-opacity:1"
               transform="translate(-1.9928433,1.1962499)" />
          </g>
          <path
             sodipodi:nodetypes="sssssssssssssssssss"
             inkscape:connector-curvature="0"
             id="path13177"
             transform="matrix(0.60957902,0,0,0.60957902,-123.43387,989.80562)"
             d="m 212.72855,33.8125 c -2.37123,0 -4.28088,1.907761 -4.28088,4.278984 v 58.514348 c 0,2.371223 1.90965,4.280888 4.28088,4.280888 h 58.5429 c 2.37123,0 4.28088,-1.909665 4.28088,-4.280888 V 38.091484 c 0,-2.371223 -1.90965,-4.278984 -4.28088,-4.278984 z m 43.38872,10.772013 c 6.04606,0 10.94653,4.772356 10.94653,10.65931 0,5.886952 -4.90047,9.992754 -10.94653,9.992754 -6.04606,0 -10.94865,-4.105802 -10.94865,-9.992754 0,-5.886954 4.90259,-10.65931 10.94865,-10.65931 z m -27.73065,-0.08813 c 6.1601,0 11.15516,4.862371 11.15516,10.860358 0,5.99799 -4.99506,10.07149 -11.15516,10.07149 -6.16009,0 -11.15301,-4.0735 -11.15301,-10.07149 0,-5.997987 4.99292,-10.860358 11.15301,-10.860358 z"
             style="color:#000000;clip-rule:nonzero;display:inline;overflow:visible;visibility:visible;opacity:1;isolation:auto;mix-blend-mode:normal;color-interpolation:sRGB;color-interpolation-filters:linearRGB;solid-color:#000000;solid-opacity:1;vector-effect:none;fill:#f27eb2;fill-opacity:1;fill-rule:nonzero;stroke:none;stroke-width:3.32391;stroke-linecap:butt;stroke-linejoin:miter;stroke-miterlimit:4;stroke-dasharray:none;stroke-dashoffset:0;stroke-opacity:1;marker:none;marker-start:none;marker-mid:none;marker-end:none;color-rendering:auto;image-rendering:auto;shape-rendering:auto;text-rendering:auto;enable-background:accumulate" />
          <g
             id="g13179"
             style="" />
        </g>
      </g>
      <path
         style="color:#000000;clip-rule:nonzero;display:inline;overflow:visible;visibility:visible;opacity:1;isolation:auto;mix-blend-mode:normal;color-interpolation:sRGB;color-interpolation-filters:linearRGB;solid-color:#000000;solid-opacity:1;vector-effect:none;fill:#ffffff;fill-opacity:1;fill-rule:nonzero;stroke:none;stroke-width:4.07700014;stroke-linecap:butt;stroke-linejoin:miter;stroke-miterlimit:4;stroke-dasharray:none;stroke-dashoffset:0;stroke-opacity:1;marker:none;marker-start:none;marker-mid:none;marker-end:none;color-rendering:auto;image-rendering:auto;shape-rendering:auto;text-rendering:auto;enable-background:accumulate"
         d="m 210.53906,194.26367 v 9.33399 h 9.7168 v -9.33399 z m 12.85742,0 v 9.33399 h 9.7168 v -9.33399 z m 12.85743,0 v 9.33399 h 9.71875 v -9.33399 z m 12.85937,0 v 9.33399 h 9.7168 v -9.33399 z m 12.85742,0 v 9.33399 h 9.71875 v -9.33399 z m -51.43164,12.42774 v 9.33398 h 9.7168 v -9.33398 z m 12.85742,0 v 9.33398 h 9.7168 v -9.33398 z m 12.85743,0 v 9.33398 h 9.71875 v -9.33398 z m 12.85937,0 v 9.33398 h 9.7168 v -9.33398 z m 12.85742,0 v 9.33398 h 9.71875 v -9.33398 z"
         id="path13185"
         inkscape:connector-curvature="0"
         transform="matrix(0.17514178,-0.12595865,0.12595865,0.17514178,-49.837823,247.3892)" />
    </g>
    <g
       id="g13254"
       transform="translate(0,-50.647576)"
       style="">
      <g
         style="display:inline"
         transform="matrix(0.4670662,0.21066306,-0.21066306,0.4670662,-240.88531,-552.91949)"
         id="g13227">
        <g
           style="display:inline;opacity:0.6;fill:#0a314c;fill-opacity:1;stroke:none;filter:url(#filter12928-6-4)"
           transform="matrix(1.4975353,0,0,1.4975353,1184.8688,-281.12639)"
           id="g13203">
          <g
             transform="translate(-480.88685,480.15674)"
             id="g13195"
             style="fill:#0a314c;fill-opacity:1;stroke:none" />
          <g
             id="g13197"
             transform="matrix(0.99285047,0,0,1,0.02228826,-0.53879683)"
             style="fill:#0a314c;fill-opacity:1;stroke:none" />
          <g
             id="g13199"
             style="fill:#0a314c;fill-opacity:1;stroke:none" />
          <path
             id="path13201"
             d="m 1879.0167,-998.06976 h 49.2959 v 14.11072 h -49.2959 z"
             style="color:#000000;clip-rule:nonzero;display:inline;overflow:visible;visibility:visible;opacity:1;isolation:auto;mix-blend-mode:normal;color-interpolation:sRGB;color-interpolation-filters:linearRGB;solid-color:#000000;solid-opacity:1;fill:#0a314c;fill-opacity:1;fill-rule:evenodd;stroke:none;stroke-width:1;stroke-linecap:butt;stroke-linejoin:miter;stroke-miterlimit:4;stroke-dasharray:none;stroke-dashoffset:0;stroke-opacity:1;marker:none;marker-start:none;marker-mid:none;marker-end:none;color-rendering:auto;image-rendering:auto;shape-rendering:auto;text-rendering:auto;enable-background:accumulate"
             transform="matrix(0.61823271,0,0,0.61823271,-1152.8235,1654.3561)"
             inkscape:connector-curvature="0"
             mask="url(#mask5419-9-5-1-7)" />
        </g>
        <g
           style="display:inline;opacity:1"
           transform="matrix(1.4950128,0,0,1.4950128,1185.0465,-281.17675)"
           id="g13225">
          <g
             transform="translate(-480.88685,480.15674)"
             id="g13211"
             style="">
            <path
               transform="matrix(1.1893556,0,0,1.1893556,-93.909189,-100.25032)"
               style="fill:#000000;fill-opacity:1;fill-rule:evenodd;stroke:#2d1203;stroke-width:0.95776898;stroke-linecap:butt;stroke-linejoin:miter;stroke-miterlimit:4;stroke-dasharray:none;stroke-opacity:1"
               d="m 498.35922,541.09619 c 0,0.94451 -0.7657,1.71021 -1.71022,1.71021 -0.94452,0 -1.71022,-0.7657 -1.71022,-1.71021 0,-0.94453 0.7657,-1.71022 1.71022,-1.71022 0.94452,0 1.71022,0.76569 1.71022,1.71022 z"
               id="path13207"
               inkscape:connector-curvature="0" />
            <path
               transform="matrix(1.1782171,0,0,1.1782171,-91.389634,-94.193194)"
               style="fill:#000000;fill-opacity:1;fill-rule:evenodd;stroke:#160901;stroke-width:0.96682298;stroke-linecap:butt;stroke-linejoin:miter;stroke-miterlimit:4;stroke-dasharray:none;stroke-opacity:1"
               d="m 515.26222,541.03419 c 0,0.94451 -0.7657,1.71021 -1.71022,1.71021 -0.94452,0 -1.71022,-0.7657 -1.71022,-1.71021 0,-0.94453 0.7657,-1.71022 1.71022,-1.71022 0.94452,0 1.71022,0.76569 1.71022,1.71022 z"
               id="path13209"
               inkscape:connector-curvature="0" />
          </g>
          <g
             id="g13217"
             transform="matrix(0.99285047,0,0,1,0.02228838,-0.53879683)"
             style="">
            <path
               transform="translate(1.9928413,1.2282499)"
               style="fill:#000000;fill-opacity:1;stroke:#000000;stroke-width:1.61320996;stroke-linecap:butt;stroke-linejoin:miter;stroke-miterlimit:4;stroke-dasharray:none;stroke-opacity:1"
               d="m 10.893574,1015.5612 -5.387714,-8.2611 3.24803,-1.9488 2.696647,4.2376 2.805313,4.4083"
               id="path13213"
               inkscape:connector-curvature="0"
               sodipodi:nodetypes="ccccc" />
            <path
               transform="translate(-1.9928433,1.1962499)"
               style="fill:#000000;fill-opacity:1;stroke:#000000;stroke-width:1.61320996;stroke-linecap:butt;stroke-linejoin:miter;stroke-miterlimit:4;stroke-dasharray:none;stroke-opacity:1"
               d="m 36.979625,1016.5092 5.984985,-9.1771 -3.24803,-1.9488 -2.71958,4.2737 -3.708082,5.827"
               id="path13215"
               inkscape:connector-curvature="0"
               sodipodi:nodetypes="ccccc" />
          </g>
          <path
             style="color:#000000;clip-rule:nonzero;display:inline;overflow:visible;visibility:visible;opacity:1;isolation:auto;mix-blend-mode:normal;color-interpolation:sRGB;color-interpolation-filters:linearRGB;solid-color:#000000;solid-opacity:1;vector-effect:none;fill:#e469a0;fill-opacity:1;fill-rule:nonzero;stroke:none;stroke-width:3.32391;stroke-linecap:butt;stroke-linejoin:miter;stroke-miterlimit:4;stroke-dasharray:none;stroke-dashoffset:0;stroke-opacity:1;marker:none;marker-start:none;marker-mid:none;marker-end:none;color-rendering:auto;image-rendering:auto;shape-rendering:auto;text-rendering:auto;enable-background:accumulate"
             d="m 212.72855,33.8125 c -2.37123,0 -4.28088,1.907761 -4.28088,4.278984 v 58.514348 c 0,2.371223 1.90965,4.280888 4.28088,4.280888 h 58.5429 c 2.37123,0 4.28088,-1.909665 4.28088,-4.280888 V 38.091484 c 0,-2.371223 -1.90965,-4.278984 -4.28088,-4.278984 z m 43.38872,10.772013 c 6.04606,0 10.94653,4.772356 10.94653,10.65931 0,5.886952 -4.90047,9.992754 -10.94653,9.992754 -6.04606,0 -10.94865,-4.105802 -10.94865,-9.992754 0,-5.886954 4.90259,-10.65931 10.94865,-10.65931 z m -27.73065,-0.08813 c 6.1601,0 11.15516,4.862371 11.15516,10.860358 0,5.99799 -4.99506,10.07149 -11.15516,10.07149 -6.16009,0 -11.15301,-4.0735 -11.15301,-10.07149 0,-5.997987 4.99292,-10.860358 11.15301,-10.860358 z"
             transform="matrix(0.60957902,0,0,0.60957902,-123.43387,989.80562)"
             id="path13221"
             inkscape:connector-curvature="0"
             sodipodi:nodetypes="sssssssssssssssssss" />
          <g
             id="g13223"
             style="" />
        </g>
      </g>
      <path
         transform="matrix(0.34702608,0.15652081,-0.15652081,0.34702608,9.1915243,190.98677)"
         inkscape:connector-curvature="0"
         id="path13229"
         d="m 210.53906,194.26367 v 9.33399 h 9.7168 v -9.33399 z m 12.85742,0 v 9.33399 h 9.7168 v -9.33399 z m 12.85743,0 v 9.33399 h 9.71875 v -9.33399 z m 12.85937,0 v 9.33399 h 9.7168 v -9.33399 z m 12.85742,0 v 9.33399 h 9.71875 v -9.33399 z m -51.43164,12.42774 v 9.33398 h 9.7168 v -9.33398 z m 12.85742,0 v 9.33398 h 9.7168 v -9.33398 z m 12.85743,0 v 9.33398 h 9.71875 v -9.33398 z m 12.85937,0 v 9.33398 h 9.7168 v -9.33398 z m 12.85742,0 v 9.33398 h 9.71875 v -9.33398 z"
         style="color:#000000;clip-rule:nonzero;display:inline;overflow:visible;visibility:visible;opacity:1;isolation:auto;mix-blend-mode:normal;color-interpolation:sRGB;color-interpolation-filters:linearRGB;solid-color:#000000;solid-opacity:1;vector-effect:none;fill:#ffffff;fill-opacity:1;fill-rule:nonzero;stroke:none;stroke-width:4.07700014;stroke-linecap:butt;stroke-linejoin:miter;stroke-miterlimit:4;stroke-dasharray:none;stroke-dashoffset:0;stroke-opacity:1;marker:none;marker-start:none;marker-mid:none;marker-end:none;color-rendering:auto;image-rendering:auto;shape-rendering:auto;text-rendering:auto;enable-background:accumulate" />
    </g>
    <use
       x="0"
       y="0"
       xlink:href="#g13254"
       id="use13302"
       transform="translate(-67.733338)"
       width="100%"
       height="100%"
       style="" />
    <use
       x="0"
       y="0"
       xlink:href="#g13254"
       id="use13304"
       transform="translate(0,67.733311)"
       width="100%"
       height="100%"
       style="" />
    <g
       id="g13277"
       style="">
      <g
         style="display:inline"
         transform="matrix(0.6438459,0,0,0.64385369,-774.42032,-528.09569)"
         id="g7321">
        <g
           style="display:inline;opacity:0.6;fill:#0a314c;fill-opacity:1;stroke:none;filter:url(#filter12928-6-4)"
           transform="matrix(1.4975353,0,0,1.4975353,1184.8688,-281.12639)"
           id="g7295">
          <g
             transform="translate(-480.88685,480.15674)"
             id="g7281"
             style="fill:#0a314c;fill-opacity:1;stroke:none" />
          <g
             id="g7287"
             transform="matrix(0.99285047,0,0,1,0.02228826,-0.53879683)"
             style="fill:#0a314c;fill-opacity:1;stroke:none" />
          <g
             id="g7291"
             style="fill:#0a314c;fill-opacity:1;stroke:none" />
          <path
             id="path7293"
             d="m 1879.0167,-998.06976 h 49.2959 v 14.11072 h -49.2959 z"
             style="color:#000000;clip-rule:nonzero;display:inline;overflow:visible;visibility:visible;opacity:1;isolation:auto;mix-blend-mode:normal;color-interpolation:sRGB;color-interpolation-filters:linearRGB;solid-color:#000000;solid-opacity:1;fill:#0a314c;fill-opacity:1;fill-rule:evenodd;stroke:none;stroke-width:1;stroke-linecap:butt;stroke-linejoin:miter;stroke-miterlimit:4;stroke-dasharray:none;stroke-dashoffset:0;stroke-opacity:1;marker:none;marker-start:none;marker-mid:none;marker-end:none;color-rendering:auto;image-rendering:auto;shape-rendering:auto;text-rendering:auto;enable-background:accumulate"
             transform="matrix(0.61823271,0,0,0.61823271,-1152.8235,1654.3561)"
             inkscape:connector-curvature="0"
             mask="url(#mask5419-9-5-1-7)" />
        </g>
        <g
           style="display:inline;opacity:1"
           transform="matrix(1.4950128,0,0,1.4950128,1185.0465,-281.17675)"
           id="g7319">
          <g
             transform="translate(-480.88685,480.15674)"
             id="g7303"
             style="">
            <path
               transform="matrix(1.1893556,0,0,1.1893556,-93.909189,-100.25032)"
               style="fill:#000000;fill-opacity:1;fill-rule:evenodd;stroke:#2d1203;stroke-width:0.95776898;stroke-linecap:butt;stroke-linejoin:miter;stroke-miterlimit:4;stroke-dasharray:none;stroke-opacity:1"
               d="m 498.35922,541.09619 c 0,0.94451 -0.7657,1.71021 -1.71022,1.71021 -0.94452,0 -1.71022,-0.7657 -1.71022,-1.71021 0,-0.94453 0.7657,-1.71022 1.71022,-1.71022 0.94452,0 1.71022,0.76569 1.71022,1.71022 z"
               id="path7299"
               inkscape:connector-curvature="0" />
            <path
               transform="matrix(1.1782171,0,0,1.1782171,-91.389634,-94.193194)"
               style="fill:#000000;fill-opacity:1;fill-rule:evenodd;stroke:#160901;stroke-width:0.96682298;stroke-linecap:butt;stroke-linejoin:miter;stroke-miterlimit:4;stroke-dasharray:none;stroke-opacity:1"
               d="m 515.26222,541.03419 c 0,0.94451 -0.7657,1.71021 -1.71022,1.71021 -0.94452,0 -1.71022,-0.7657 -1.71022,-1.71021 0,-0.94453 0.7657,-1.71022 1.71022,-1.71022 0.94452,0 1.71022,0.76569 1.71022,1.71022 z"
               id="path7301"
               inkscape:connector-curvature="0" />
          </g>
          <g
             id="g7309"
             transform="matrix(0.99285047,0,0,1,0.02228838,-0.53879683)"
             style="">
            <path
               transform="translate(1.9928413,1.2282499)"
               style="fill:#000000;fill-opacity:1;stroke:#000000;stroke-width:1.61320996;stroke-linecap:butt;stroke-linejoin:miter;stroke-miterlimit:4;stroke-dasharray:none;stroke-opacity:1"
               d="m 10.893574,1015.5612 -5.387714,-8.2611 3.24803,-1.9488 2.696647,4.2376 2.805313,4.4083"
               id="path7305"
               inkscape:connector-curvature="0"
               sodipodi:nodetypes="ccccc" />
            <path
               transform="translate(-1.9928433,1.1962499)"
               style="fill:#000000;fill-opacity:1;stroke:#000000;stroke-width:1.61320996;stroke-linecap:butt;stroke-linejoin:miter;stroke-miterlimit:4;stroke-dasharray:none;stroke-opacity:1"
               d="m 36.979625,1016.5092 5.984985,-9.1771 -3.24803,-1.9488 -2.71958,4.2737 -3.708082,5.827"
               id="path7307"
               inkscape:connector-curvature="0"
               sodipodi:nodetypes="ccccc" />
          </g>
          <path
             style="color:#000000;clip-rule:nonzero;display:inline;overflow:visible;visibility:visible;opacity:1;isolation:auto;mix-blend-mode:normal;color-interpolation:sRGB;color-interpolation-filters:linearRGB;solid-color:#000000;solid-opacity:1;vector-effect:none;fill:#f27fb2;fill-opacity:1;fill-rule:nonzero;stroke:none;stroke-width:3.32391;stroke-linecap:butt;stroke-linejoin:miter;stroke-miterlimit:4;stroke-dasharray:none;stroke-dashoffset:0;stroke-opacity:1;marker:none;marker-start:none;marker-mid:none;marker-end:none;color-rendering:auto;image-rendering:auto;shape-rendering:auto;text-rendering:auto;enable-background:accumulate"
             d="m 212.72855,33.8125 c -2.37123,0 -4.28088,1.907761 -4.28088,4.278984 v 58.514348 c 0,2.371223 1.90965,4.280888 4.28088,4.280888 h 58.5429 c 2.37123,0 4.28088,-1.909665 4.28088,-4.280888 V 38.091484 c 0,-2.371223 -1.90965,-4.278984 -4.28088,-4.278984 z m 43.38872,10.772013 c 6.04606,0 10.94653,4.772356 10.94653,10.65931 0,5.886952 -4.90047,9.992754 -10.94653,9.992754 -6.04606,0 -10.94865,-4.105802 -10.94865,-9.992754 0,-5.886954 4.90259,-10.65931 10.94865,-10.65931 z m -27.73065,-0.08813 c 6.1601,0 11.15516,4.862371 11.15516,10.860358 0,5.99799 -4.99506,10.07149 -11.15516,10.07149 -6.16009,0 -11.15301,-4.0735 -11.15301,-10.07149 0,-5.997987 4.99292,-10.860358 11.15301,-10.860358 z"
             transform="matrix(0.60957902,0,0,0.60957902,-123.43387,989.80562)"
             id="path7313"
             inkscape:connector-curvature="0"
             sodipodi:nodetypes="sssssssssssssssssss" />
          <g
             id="g7315"
             style="" />
        </g>
      </g>
      <path
         transform="matrix(0.47837185,0,0,0.47837764,-103.65488,195.42738)"
         inkscape:connector-curvature="0"
         id="rect4772"
         d="m 210.53906,194.26367 v 9.33399 h 9.7168 v -9.33399 z m 12.85742,0 v 9.33399 h 9.7168 v -9.33399 z m 12.85743,0 v 9.33399 h 9.71875 v -9.33399 z m 12.85937,0 v 9.33399 h 9.7168 v -9.33399 z m 12.85742,0 v 9.33399 h 9.71875 v -9.33399 z m -51.43164,12.42774 v 9.33398 h 9.7168 v -9.33398 z m 12.85742,0 v 9.33398 h 9.7168 v -9.33398 z m 12.85743,0 v 9.33398 h 9.71875 v -9.33398 z m 12.85937,0 v 9.33398 h 9.7168 v -9.33398 z m 12.85742,0 v 9.33398 h 9.71875 v -9.33398 z"
         style="color:#000000;clip-rule:nonzero;display:inline;overflow:visible;visibility:visible;opacity:1;isolation:auto;mix-blend-mode:normal;color-interpolation:sRGB;color-interpolation-filters:linearRGB;solid-color:#000000;solid-opacity:1;vector-effect:none;fill:#ffffff;fill-opacity:1;fill-rule:nonzero;stroke:none;stroke-width:4.07700014;stroke-linecap:butt;stroke-linejoin:miter;stroke-miterlimit:4;stroke-dasharray:none;stroke-dashoffset:0;stroke-opacity:1;marker:none;marker-start:none;marker-mid:none;marker-end:none;color-rendering:auto;image-rendering:auto;shape-rendering:auto;text-rendering:auto;enable-background:accumulate" />
    </g>
    <use
       x="0"
       y="0"
       xlink:href="#g13277"
       id="use13306"
       transform="translate(0,-67.733329)"
       width="100%"
       height="100%"
       style="" />
    <use
       x="0"
       y="0"
       xlink:href="#g13277"
       id="use13308"
       transform="translate(67.733336)"
       width="100%"
       height="100%"
       style="" />
    <use
       x="0"
       y="0"
       xlink:href="#g13300"
       id="use13310"
       transform="matrix(0.8126419,1.2373264,-1.2373264,0.8126419,330.54638,47.00878)"
       width="100%"
       height="100%"
       style="" />
    <use
       x="0"
       y="0"
       xlink:href="#g13277"
       id="use13356"
       transform="translate(0,-255.99983)"
       width="100%"
       height="100%"
       style="" />
    <use
       x="0"
       y="0"
       xlink:href="#g13277"
       id="use13360"
       transform="translate(67.733336,-67.733329)"
       width="100%"
       height="100%"
       style="" />
  </g>
</svg>
